<?xml version="1.0" encoding="utf-8"?>
<!-- Generator: Adobe Illustrator 25.2.0, SVG Export Plug-In . SVG Version: 6.00 Build 0)  -->
<svg version="1.1" id="Calque_1" xmlns="http://www.w3.org/2000/svg" xmlns:xlink="http://www.w3.org/1999/xlink" x="0px" y="0px"
	 viewBox="0 0 595.28 841.89" style="enable-background:new 0 0 595.28 841.89;" xml:space="preserve">
<style type="text/css">
	.st0{fill:#020203;}
</style>
<g>
	<path d="M108.72,408.44H77.37l-5.19,12.15H57.49l28.11-68.57h14.79L82.27,396.2h21.45l-9.7-23.51l11.07-9.5l23.41,57.4h-14.69
		L108.72,408.44z"/>
	<path d="M131.44,371.61h13.03v48.98h-13.03V371.61z M184.53,370.83c3.07,0,5.66,0.6,7.79,1.81c2.12,1.21,3.84,2.79,5.14,4.75
		c1.31,1.96,2.25,4.16,2.84,6.61c0.59,2.45,0.88,4.91,0.88,7.4v29.19h-13.03l0.1-29.27c0-1.05-0.2-2.03-0.59-2.94
		c-0.39-0.92-0.93-1.74-1.62-2.46c-0.69-0.72-1.5-1.29-2.45-1.72c-0.95-0.43-1.94-0.64-2.99-0.64c-2.16,0-3.98,0.77-5.49,2.31
		c-1.5,1.54-2.25,3.36-2.25,5.45v29.27h-13.03v-29.27c0-1.05-0.2-2.03-0.59-2.94c-0.39-0.92-0.95-1.74-1.67-2.46
		c-0.72-0.72-1.55-1.28-2.5-1.67c-0.95-0.39-2.01-0.59-3.18-0.59c-0.07,0-0.36-0.48-0.88-1.46c-0.52-0.97-1.11-2.04-1.76-3.21
		c-0.72-1.36-1.6-2.92-2.65-4.67l0.1-0.19c2.81-2.2,5.91-3.31,9.31-3.31c3.66,0,6.63,0.81,8.91,2.43c2.29,1.62,4.05,3.63,5.29,6.03
		c0.26-0.45,0.52-0.84,0.78-1.17c1.83-2.4,3.9-4.21,6.22-5.44C179.55,371.44,181.99,370.83,184.53,370.83z"/>
	<path d="M259.66,371.61v48.98h-12.83v-24.55c0-1.9-0.36-3.67-1.08-5.3c-0.72-1.64-1.71-3.08-2.99-4.32
		c-1.27-1.24-2.74-2.21-4.41-2.9c-1.67-0.69-3.41-1.03-5.24-1.03c-1.89,0-3.66,0.36-5.29,1.08c-1.63,0.72-3.09,1.69-4.36,2.9
		s-2.27,2.65-2.99,4.33c-0.72,1.67-1.08,3.46-1.08,5.36c0,1.84,0.36,3.57,1.08,5.21c0.72,1.64,1.71,3.08,2.99,4.33
		c1.27,1.25,2.73,2.23,4.36,2.95c1.63,0.72,3.4,1.08,5.29,1.08c2.02,0,3.75-0.36,5.19-1.08h0.1v0.2l4.9,8.72l-0.1,0.1
		c-3.2,2.48-7.15,3.72-11.85,3.72c-3.46,0-6.73-0.65-9.8-1.96c-3.07-1.31-5.75-3.1-8.03-5.39c-2.29-2.29-4.1-4.96-5.44-8.03
		c-1.34-3.07-2.01-6.33-2.01-9.8c0-3.53,0.67-6.82,2.01-9.89c1.34-3.07,3.15-5.75,5.44-8.03c2.29-2.29,4.96-4.1,8.03-5.44
		c3.07-1.34,6.33-2.01,9.8-2.01c3.4,0,6.37,0.63,8.91,1.9s4.73,3.09,6.56,5.49v-6.6H259.66z"/>
	<path d="M265.64,408.93h48.78v11.66h-48.88L265.64,408.93z M315.89,371.61v12.73l-0.1-0.1l-27.82,23.31l-14.01-5.98l23.02-19.4
		h-29.97v-10.58H315.89z"/>
	<path d="M320.79,394.73v-8.23h32.23v8.23H320.79z"/>
	<path d="M409.63,408.44h-31.35l-5.19,12.15H358.4l28.11-68.57h14.79l-18.12,44.18h21.45l-9.7-23.51l11.07-9.5l23.41,57.4h-14.69
		L409.63,408.44z"/>
	<path d="M521.81,370.83c3.46,0,6.72,0.67,9.79,2.01c3.07,1.34,5.75,3.15,8.03,5.44c2.29,2.29,4.1,4.96,5.44,8.03
		c1.34,3.07,2.01,6.37,2.01,9.89c0,1.89-0.2,3.72-0.59,5.49l-0.1,0.2h-24.88l-6.27-9.99h18.61c-0.92-2.74-2.43-5-4.55-6.76
		c-2.12-1.76-4.62-2.64-7.49-2.64c-1.76,0-3.43,0.36-5,1.07s-2.92,1.68-4.07,2.88c-1.14,1.2-2.04,2.64-2.69,4.29
		c-0.65,1.66-0.98,3.47-0.98,5.42c0,1.5,0.29,3.04,0.88,4.64c0.59,1.59,1.44,3.04,2.55,4.34c1.11,1.3,2.45,2.39,4.02,3.27
		s3.33,1.32,5.29,1.32c1.76,0,3.38-0.24,4.85-0.73c1.47-0.49,2.86-1.58,4.16-3.28l0.1-0.1l0.2,0.1l11.36,5l-0.2,0.2
		c-2.35,3.29-5.34,5.86-8.96,7.71c-3.63,1.84-7.46,2.77-11.51,2.77c-3.53,0-6.84-0.65-9.94-1.96c-3.1-1.31-5.8-3.1-8.08-5.39
		c-2.29-2.29-4.1-4.96-5.44-8.03c-1.34-3.07-2.01-6.33-2.01-9.8c0-3.53,0.67-6.82,2.01-9.89c1.34-3.07,3.15-5.75,5.44-8.03
		c2.29-2.29,4.98-4.1,8.08-5.44C514.96,371.5,518.28,370.83,521.81,370.83z"/>
</g>
<path class="st0" d="M468.38,352.75l-0.25-0.46c-9.24,2.82-19.37,9.89-27.54,18.62c-15.88,18.5-13.2,40.57-2.16,47.82
	c11.18,6.94,32.41-0.07,46.16-17.31c1.44-2.04,2.71-4.14,3.8-6.26c-1.81,1.94-3.89,3.91-6.24,5.89
	c-15.88,13.41-33.63,17.85-40.14,12.68c-5.34-4.24-2.12-14.37,7.15-24.09c6.52-6.83,15.67-13.1,24.44-16.67l-0.02-0.89l-0.2-7.34
	c-1.07-0.32-2.15-0.96-2.51-2.29c-0.05-0.19-0.08-0.39-0.09-0.59c-0.06-1.05,0.44-1.93,1.12-2.64L468.38,352.75z M479.15,331.41
	l-1.87,0.5l3.02,5.57l9.05,16.7c-0.81,0.24-1.61,0.49-2.39,0.73c-3.1,0.98-5.92,2-8.01,2.89l-4.74-4.84l-1.67-1.71l-0.16-0.16
	l-1.87,0.5l0.02,0.04l3.32,6.12l1.12,2.06c-0.47,0.3-0.84,0.58-1.12,0.84c-0.46,0.42-0.68,0.78-0.67,1.06
	c0,0.03,0.01,0.06,0.01,0.09c0.06,0.22,0.3,0.41,0.72,0.55c0.42,0.14,1.03,0.24,1.81,0.28l0.26,9.35l0.67-0.18l1.19-0.32l0.02-0.07
	l2.31-9.02c2.82-0.34,6.71-1.08,10.76-2.05c0.02,0,0.04-0.01,0.06-0.01l0,0.13l0.27,9.86l0.43,15.32l1.12-0.3l0.75-0.2l0.28-1.1
	l1.97-7.68c0.61-0.25,1.15-0.51,1.61-0.76c0.98-0.54,1.56-1.06,1.54-1.54c0-0.04-0.01-0.08-0.02-0.12
	c-0.09-0.33-0.45-0.52-1.02-0.62c-0.36-0.06-0.81-0.07-1.32-0.05l1.43-5.6c0.21-0.09,0.42-0.17,0.61-0.26
	c1.71-0.74,2.83-1.49,2.8-2.15c0-0.04-0.01-0.08-0.02-0.12c-0.15-0.57-1.13-0.74-2.58-0.66l1.76-6.87c5.5-1.83,9.72-3.86,9.63-5.55
	c0-0.07-0.01-0.14-0.03-0.2c-0.46-1.73-5.28-1.4-11.19-0.18l-2.24-2.29l-2.72-2.78c0.63-0.31,1.13-0.63,1.46-0.93
	c0.31-0.28,0.48-0.56,0.46-0.82c0-0.04-0.01-0.08-0.02-0.12c-0.09-0.34-0.49-0.54-1.11-0.63c-0.75-0.1-1.82-0.04-3.09,0.14
	l-4.05-4.13c1.08-0.57,1.74-1.13,1.71-1.63c0-0.04-0.01-0.08-0.02-0.12c-0.2-0.73-1.75-0.81-3.92-0.52l-2.25-2.3L479.15,331.41z"/>
</svg>
